<svg id="Layer_1" xmlns="http://www.w3.org/2000/svg" viewBox="-91 66 133 40"><style>.st0{fill:#FFFFFF;} .st1{fill:#42AF58;}</style><path class="st0" d="M-33.5 74.3l-1.1 1.1c-.8-.8-1.7-1.4-2.7-1.8s-1.9-.6-2.9-.6c-1.2 0-2.3.3-3.3.9s-1.9 1.3-2.4 2.3c-.6 1-.9 2-.9 3.1s.3 2.2.9 3.2c.6 1 1.4 1.8 2.5 2.4s2.2.9 3.5.9c1.5 0 2.8-.4 3.9-1.3s1.7-2 1.9-3.3H-39v-1.4h6.4c0 2.3-.7 4.1-2 5.4-1.3 1.3-3.1 2-5.4 2-2.7 0-4.9-.9-6.5-2.8-1.2-1.4-1.8-3.1-1.8-5 0-1.4.4-2.7 1.1-3.9.7-1.2 1.7-2.1 2.9-2.8 1.2-.7 2.6-1 4.2-1 1.3 0 2.4.2 3.5.7.9.1 2 .9 3.1 1.9zM-30 71.8h8.5v1.4h-7v4.6h6.9v1.4h-6.9V85h6.9v1.4H-30V71.8zM-20.5 73.2v-1.4h8.1v1.4h-3.3v13.3h-1.5V73.2h-3.3zM-47.7 90.8h2.8v12.1h4.1v2.7h-6.9V90.8zM-38.9 90.8h2.8v14.8h-2.8V90.8zM-19.4 93.4l-2 1.9c-1.3-1.4-2.8-2.1-4.5-2.1-1.4 0-2.6.5-3.6 1.4-1 1-1.5 2.2-1.5 3.6 0 1 .2 1.9.6 2.6.4.8 1 1.4 1.8 1.8.8.4 1.7.7 2.6.7.8 0 1.6-.2 2.2-.5.7-.3 1.4-.9 2.2-1.7l1.9 2c-1.1 1.1-2.1 1.8-3.1 2.2s-2.1.6-3.3.6c-2.3 0-4.2-.7-5.6-2.2-1.5-1.5-2.2-3.3-2.2-5.6 0-1.5.3-2.8 1-3.9s1.6-2.1 2.9-2.8c1.2-.7 2.6-1 4-1 1.2 0 2.4.3 3.5.8 1.3.6 2.3 1.3 3.1 2.2zM-17 90.8h8.1v2.8h-5.3v2.7h5.3V99h-5.3v3.9h5.3v2.8H-17V90.8zM-6.3 90.8h2.7l6.3 9.7v-9.7h2.8v14.8H2.8l-6.3-9.7v9.7h-2.8V90.8zM16.6 92.8l-2.1 1.8c-.7-1-1.5-1.5-2.2-1.5-.4 0-.7.1-.9.3-.2.2-.4.4-.4.7 0 .2.1.5.3.7.2.3.9.9 2.1 1.9 1.1.9 1.7 1.5 2 1.7.6.6 1 1.1 1.2 1.7.2.5.4 1.1.4 1.7 0 1.2-.4 2.2-1.3 3-.8.8-1.9 1.2-3.3 1.2-1.1 0-2-.3-2.8-.8s-1.4-1.3-2-2.4l2.4-1.4c.7 1.3 1.5 2 2.5 2 .5 0 .9-.1 1.2-.4.3-.3.5-.6.5-1 0-.3-.1-.7-.4-1-.2-.3-.8-.8-1.6-1.5-1.6-1.3-2.7-2.3-3.1-3-.5-.7-.7-1.4-.7-2.1 0-1 .4-1.9 1.2-2.6.8-.7 1.7-1.1 2.9-1.1.7 0 1.4.2 2.1.5.5.1 1.2.7 2 1.6zM19.5 90.8h8.1v2.8h-5.3v2.7h5.3V99h-5.3v3.9h5.3v2.8h-8.1V90.8zM30.2 90.8h3.3c2.1 0 3.7.3 4.8.8 1 .5 1.9 1.4 2.6 2.6.7 1.2 1 2.6 1 4.2 0 1.1-.2 2.2-.6 3.1-.4 1-.9 1.7-1.6 2.4-.7.6-1.4 1.1-2.2 1.3s-2.1.4-4 .4h-3.4l.1-14.8zm2.8 2.7v9.3h1.3c1.3 0 2.2-.1 2.8-.4.6-.3 1.1-.8 1.4-1.5.4-.7.6-1.6.6-2.6 0-1.6-.4-2.8-1.3-3.7-.8-.8-2.1-1.2-3.8-1.2h-1v.1zM-60.2 71.4l-1.5 3.5h3.7V102h-29.3V74.9h20.9l1.7-3.5h-26.2v34.1h36.5V71.4z"/><path class="st1" d="M-83.4 89.1s2.3-3.6 6.3-2.8c.3-.8 3.8 6.8 3.8 6.8s11-26.7 12.6-27.1c.9.4 1.6 1.3 1.6 1.3s-5.6 10.6-11.3 30.4c-1.6 1.8-5.4 2.1-5.4 2.1s-6.3-10.1-7.6-10.7z"/></svg>