<svg xmlns="http://www.w3.org/2000/svg" viewBox="-6349 4230.234 122.062 36.766">
  <defs>
    <style>
      .cls-1 {
        fill: #42af58;
      }
    </style>
  </defs>
  <g id="Group_2546" data-name="Group 2546" transform="translate(-6349 4230.234)">
    <path id="Path_5136" data-name="Path 5136" d="M52.759,8.066,51.748,9.077a7.345,7.345,0,0,0-2.482-1.654A6.924,6.924,0,0,0,46.6,6.871a5.785,5.785,0,0,0-3.033.827,5.441,5.441,0,0,0-2.206,2.114,5.388,5.388,0,0,0-.827,2.849,5.7,5.7,0,0,0,.827,2.941,5.9,5.9,0,0,0,2.3,2.206,6.45,6.45,0,0,0,3.217.827,5.449,5.449,0,0,0,3.585-1.195,4.7,4.7,0,0,0,1.746-3.033H47.7V13.121h5.883a6.732,6.732,0,0,1-1.838,4.963,6.732,6.732,0,0,1-4.963,1.838,7.41,7.41,0,0,1-5.974-2.574,6.887,6.887,0,0,1-1.654-4.6,7.036,7.036,0,0,1,1.011-3.585,7.164,7.164,0,0,1,2.666-2.574,8.474,8.474,0,0,1,7.077-.276A6.122,6.122,0,0,1,52.759,8.066Zm3.217-2.3h7.813V7.054H57.354v4.228H63.7v1.287H57.354V17.9H63.7v1.287H55.976Zm8.732,1.287V5.768h7.445V7.054H69.119V19.279H67.741V7.054Zm-25,16.177H42.28V34.353h3.768v2.482H39.707S39.707,23.231,39.707,23.231Zm8.088,0h2.574v13.6H47.8Zm17.923,2.39L63.88,27.367a5.5,5.5,0,0,0-4.136-1.93,4.816,4.816,0,0,0-3.309,1.287,4.513,4.513,0,0,0-1.379,3.309,4.835,4.835,0,0,0,.551,2.39,3.607,3.607,0,0,0,1.654,1.654,5.459,5.459,0,0,0,2.39.643,4.679,4.679,0,0,0,2.022-.46A7.063,7.063,0,0,0,63.7,32.7l1.746,1.838a8.641,8.641,0,0,1-2.849,2.022,8.1,8.1,0,0,1-3.033.551,6.718,6.718,0,0,1-5.147-2.022,6.855,6.855,0,0,1-2.022-5.147,6.513,6.513,0,0,1,.919-3.585,7.183,7.183,0,0,1,2.666-2.574,7.284,7.284,0,0,1,3.677-.919,7.836,7.836,0,0,1,3.217.735A8.365,8.365,0,0,1,65.719,25.621Zm2.206-2.39H75.37V25.8H70.5v2.482H75.37v2.482H70.5v3.585H75.37v2.574H67.924Zm9.835,0h2.482l5.791,8.916V23.231h2.574v13.6H86.123l-5.791-8.916v8.916H77.759ZM98.808,25.07l-1.93,1.654a2.712,2.712,0,0,0-2.022-1.379,1.124,1.124,0,0,0-.827.276.93.93,0,0,0-.368.643.993.993,0,0,0,.276.643,14.55,14.55,0,0,0,1.93,1.746c1.011.827,1.563,1.379,1.838,1.563a4.089,4.089,0,0,1,1.1,1.563,4.33,4.33,0,0,1,.368,1.563A3.5,3.5,0,0,1,97.98,36.1a4.1,4.1,0,0,1-3.033,1.1,4.7,4.7,0,0,1-2.574-.735,5.619,5.619,0,0,1-1.838-2.206l2.206-1.287c.643,1.195,1.379,1.838,2.3,1.838a1.465,1.465,0,0,0,1.1-.368,1.276,1.276,0,0,0,.46-.919,1.317,1.317,0,0,0-.368-.919,11.719,11.719,0,0,0-1.471-1.379,13.514,13.514,0,0,1-2.849-2.757,3.238,3.238,0,0,1-.643-1.93,3.1,3.1,0,0,1,1.1-2.39,3.835,3.835,0,0,1,2.666-1.011,4.94,4.94,0,0,1,1.93.46A4.466,4.466,0,0,1,98.808,25.07Zm2.666-1.838h7.445V25.8h-4.871v2.482h4.871v2.482h-4.871v3.585h4.871v2.574h-7.445Zm9.835,0h3.033a10.936,10.936,0,0,1,4.412.735,5.961,5.961,0,0,1,2.39,2.39,7.5,7.5,0,0,1,.919,3.86,7.16,7.16,0,0,1-.551,2.849,6.2,6.2,0,0,1-1.471,2.206,5.124,5.124,0,0,1-2.022,1.195,15.464,15.464,0,0,1-3.677.368h-3.125l.092-13.6Zm2.574,2.482v8.548h1.195a6.078,6.078,0,0,0,2.574-.368,2.7,2.7,0,0,0,1.287-1.379,4.835,4.835,0,0,0,.551-2.39,4.526,4.526,0,0,0-1.195-3.4,4.825,4.825,0,0,0-3.493-1.1h-.919v.092ZM28.218,5.4,26.839,8.617h3.4V33.526H3.309V8.617h19.21L24.081,5.4H0V36.743H33.549V5.4Z" transform="translate(0 -0.437)"/>
    <path id="Path_5137" data-name="Path 5137" class="cls-1" d="M7.5,21.232s2.114-3.309,5.791-2.574c.276-.735,3.493,6.25,3.493,6.25S26.894.368,28.364,0a4.515,4.515,0,0,1,1.471,1.195s-5.147,9.743-10.386,27.942c-1.471,1.654-4.963,1.93-4.963,1.93S8.695,21.784,7.5,21.232Z" transform="translate(-0.606)"/>
  </g>
</svg>
