<svg id="Layer_1" xmlns="http://www.w3.org/2000/svg" viewBox="0 0 315 170"><style>.st0{fill:#FFFFFF;} .st1{fill:#CFCFCF;} .st2{fill:#1D1D1B;} .st3{fill:#B1B1B1;} .st4{fill:#FCC200;} .st5{fill:#A40344;}</style><path class="st0" d="M57.6 26.1c-27 0-49 22-49 49s22 49 49 49h204.2c27 0 49-22 49-49s-22-49-49-49H57.6z"/><path class="st1" d="M261.8 128.2H57.6c-29.3 0-53.2-23.8-53.2-53.1S28.3 22 57.6 22h204.2c29.3 0 53.2 23.8 53.2 53.1s-23.9 53.1-53.2 53.1M57.6 26.1c-27 0-49 22-49 49s22 49 49 49h204.2c27 0 49-22 49-49s-22-49-49-49H57.6z"/><path class="st2" d="M237.3 45.3c-7.9 0-14.4 6.4-14.4 14.4 0 7.9 6.4 14.3 14.4 14.3 7.9 0 14.4-6.4 14.4-14.3s-6.4-14.4-14.4-14.4m0 21.8c-4.1 0-7.4-3.3-7.4-7.4 0-4.1 3.3-7.4 7.4-7.4 4.1 0 7.4 3.3 7.4 7.4 0 4.1-3.3 7.4-7.4 7.4M171.5 45.3c-7.9 0-14.4 6.4-14.4 14.4 0 7.9 6.4 14.3 14.4 14.3 7.9 0 14.4-6.4 14.4-14.3s-6.5-14.4-14.4-14.4m0 21.8c-4.1 0-7.4-3.3-7.4-7.4 0-4.1 3.3-7.4 7.4-7.4 4.1 0 7.4 3.3 7.4 7.4 0 4.1-3.3 7.4-7.4 7.4M222.1 67.5c-.9.3-2.3.5-2.8.5-2.5 0-3-.8-3-3.2V51.5h5.9V46h-5.9v-7.8h-6.6l-1.4 7.8h-5c-3.8 0-6.6 2.3-8.4 5.9l-2.3-5.9h-4.7v27.5h8.1v-12c0-6 3.6-9.9 7.8-10h4.4v13.7c0 6.4 3.3 8.8 8.7 8.8 2.8 0 4.9-.6 6.2-1l-1-5.5zM261.5 54.7v18.8h-7.9V46h4.8l1.6 4.2M260 50.2c2.4-2.8 5.7-4.9 9.5-4.9 6.6 0 9.3 5.2 9.3 10.1v18.1h-8.1V55.6c0-2.4-2-3.6-4.1-3.6-2.3 0-3.7 1.3-5 2.7M125.6 36h9L147 59.6V36h7.4v37.5h-8.1L133 47.6v25.9h-7.4z"/><path class="st3" d="M302.6 21.9v1.4h-1.9v6.6h-1.6v-6.6h-1.9v-1.4zM303.7 29.9v-8h2.1l1.4 5.2 1.4-5.2h2.1v8h-1.3v-6.2l-1.6 6.2h-1.1l-1.7-6.2v6.2zM123.3 106.8l1.9-2.9c1.5 1.1 3.8 2.2 6.6 2.2 2.7 0 4.4-1.2 4.4-3.4 0-2.4-2.1-3.1-5.6-4.3-3.1-1.1-6.2-2.7-6.2-7.1 0-4.1 3.3-6.4 7.6-6.4 2.9 0 5.1.6 6.8 1.6l-1.5 3.1c-1.5-.8-3.2-1.3-5.2-1.3-2.4 0-3.9.9-3.9 2.9 0 2.3 1.7 2.8 4.9 3.9 3.3 1.1 7 2.6 7 7.5 0 4.1-3 6.8-8.2 6.8-4 0-6.9-1.3-8.6-2.6M147.2 85.3h14.2v3.3h-10.2v6.5h8v3.2h-8v7.5H162v3.3h-14.8zM167.7 97.2c0-7 3.3-12.3 10-12.3 3 0 5.3.9 7 2.9l-2.4 2.7c-1.4-1.4-2.6-2.1-4.6-2.1-3.9 0-5.7 3.2-5.7 9.1 0 5.5 1.9 8.3 5.7 8.3 2.1 0 3.6-1.1 4.9-2.5l2.4 2.6c-1.7 2-3.9 3.4-7.4 3.4-6.7.1-9.9-5.1-9.9-12.1M191.7 100V85.3h4.1v15.4c0 3.3.8 5.4 4.3 5.4 3.4 0 4.3-2.1 4.3-5.4V85.3h4.1V100c0 5.9-2.3 9.4-8.4 9.4-6.1 0-8.4-3.5-8.4-9.4M233.3 109.1h-4.4L224.3 99h-3.8v10.1h-4V85.3h7.8c4.8 0 8.6 1.7 8.6 6.9 0 3.6-2.1 5.4-4.5 6.2l4.9 10.7zm-9.1-13.2c3 0 4.6-1 4.6-3.7 0-2.6-1.6-3.6-4.3-3.6h-3.8v7.3h3.5zM240.2 85.3h14.2v3.3h-10.1v6.5h8v3.2h-8v7.5H255v3.3h-14.8zM261.8 85.3h6c7.8 0 11.5 4.2 11.5 11.8 0 7.8-3.8 12-11.3 12h-6.2V85.3zm5.8 20.5c5.6 0 7.5-2.6 7.5-8.7 0-5.4-1.5-8.5-7-8.5h-2.2v17.3h1.7z"/><path class="st4" d="M57.4 132.4C25.7 132.4 0 106.7 0 75.1c0-31.6 25.7-57.3 57.4-57.3 31.6 0 57.4 25.7 57.4 57.3-.1 31.6-25.8 57.3-57.4 57.3m0-96.5c-10.5 0-20.3 4.1-27.7 11.5-7.4 7.4-11.5 17.3-11.5 27.7 0 10.5 4.1 20.3 11.5 27.7 7.4 7.4 17.3 11.5 27.7 11.5 10.5 0 20.3-4.1 27.7-11.5 7.4-7.4 11.5-17.3 11.5-27.7 0-10.5-4.1-20.3-11.5-27.7-7.4-7.4-17.3-11.5-27.7-11.5M119.9 8.9h4.5v4.5h-4.5zM119.9 0h4.5v4.5h-4.5zM107.3 13.3h4.2v4.4h-4.2z"/><path class="st2" d="M99 21.9h4.2v4.2H99zM111.5 17.7h4.7v4.2h-4.7zM94.8 17.9H99v4h-4.2zM107.3 21.9h4.2v4.2h-4.2zM115.4 4.5h4.4v4.4h-4.4zM107.3 8.9h8.2v4.4h-8.2zM103.2 13.3h4.1v8.6h-4.1zM103.2 26.1v4.2H99v-4.2h-7v3h-3.7v3.7h4.2V37h-4.2v-4.2h-4.4v6.5h-4.2v4.2h-2.8v4.2h-3.1c-3.4 5.1-12.1 21.1-14.7 27.6C49.7 62.2 42.4 57 36.6 55.1c-3.1-.9-6.8 2.4-1.7 7.8 11.8 13 15.6 23.8 19.2 32.4 1.9 4.5 10.4 5.2 12.2.6 3.6-9.8 8.9-20.7 15.2-29.7v-4.7h3.3v-4.2h3.5v-4.9h4.2v-4.7h-4.2v-4.3h4.2v4.3h4.2v-4.2h3.3v-5.1h3.7V35h3.6v-8.9h-4.1z"/><path class="st3" d="M22.3 152.1h3.1v2.3c1-1.4 2.4-2.6 4.6-2.6 3.2 0 6.4 2.6 6.4 7.1v.1c0 4.5-3.1 7.1-6.4 7.1-2.3 0-3.7-1.1-4.6-2.4v6.3h-3.1v-17.9zm11 6.8c0-2.7-1.8-4.4-3.9-4.4s-4 1.8-4 4.4v.1c0 2.6 1.9 4.4 4 4.4 2.1-.1 3.9-1.8 3.9-4.5M39 159c0-4 3.1-7.2 7.3-7.2s7.3 3.2 7.3 7.1v.1c0 3.9-3.1 7.1-7.3 7.1-4.2 0-7.3-3.2-7.3-7.1m11.5 0c0-2.5-1.7-4.5-4.2-4.5s-4.1 2-4.1 4.4v.1c0 2.4 1.7 4.4 4.2 4.4s4.1-2 4.1-4.4M55.1 152.1h3.3l2.7 9.4 3-9.5h2.7l3.1 9.5 2.8-9.4h3.1l-4.5 13.8h-2.8l-3-9.4-3.1 9.4h-2.8zM77.4 159c0-4 2.8-7.2 6.7-7.2 4.4 0 6.6 3.4 6.6 7.4 0 .3 0 .6-.1.9h-10c.3 2.2 1.9 3.5 3.9 3.5 1.5 0 2.6-.6 3.7-1.6l1.8 1.6c-1.3 1.6-3.1 2.6-5.6 2.6-3.9-.1-7-3-7-7.2m10.2-1c-.2-2-1.4-3.6-3.5-3.6-1.9 0-3.3 1.5-3.6 3.6h7.1zM94 152.1h3.1v3.1c.9-2 2.4-3.4 4.9-3.3v3.3h-.2c-2.8 0-4.7 1.8-4.7 5.4v5.2H94v-13.7zM103.8 159c0-4 2.8-7.2 6.7-7.2 4.4 0 6.6 3.4 6.6 7.4 0 .3 0 .6-.1.9h-10.1c.3 2.2 1.9 3.5 3.9 3.5 1.5 0 2.6-.6 3.7-1.6l1.8 1.6c-1.3 1.6-3.1 2.6-5.6 2.6-3.8-.1-6.9-3-6.9-7.2m10.1-1c-.2-2-1.4-3.6-3.5-3.6-1.9 0-3.3 1.5-3.6 3.6h7.1zM119.6 158.9c0-4.6 3.1-7.2 6.4-7.2 2.3 0 3.7 1.1 4.7 2.4v-7.4h3.1v18.9h-3.1v-2.3c-1 1.4-2.4 2.6-4.7 2.6-3.3.2-6.4-2.4-6.4-7m11.1 0c0-2.7-1.9-4.4-4-4.4-2.2 0-3.9 1.7-3.9 4.4v.1c0 2.6 1.8 4.4 3.9 4.4 2.1-.1 4-1.8 4-4.5M148.6 163.6v2.1h-3.1v-18.9h3.1v7.5c1-1.4 2.4-2.6 4.6-2.6 3.2 0 6.4 2.6 6.4 7.1v.1c0 4.5-3.1 7.1-6.4 7.1-2.2.1-3.6-1.1-4.6-2.4m7.9-4.7c0-2.7-1.8-4.4-3.9-4.4-2.1 0-4 1.8-4 4.4v.1c0 2.6 1.9 4.4 4 4.4 2.1-.1 3.9-1.8 3.9-4.5M161.8 169.2l1.1-2.3c.6.3 1.2.5 1.8.5.9 0 1.4-.4 1.9-1.6l-5.7-13.7h3.3l3.9 10.2 3.6-10.2h3.3l-5.5 14.1c-1.1 2.8-2.3 3.8-4.5 3.8-1.3 0-2.2-.3-3.2-.8"/><path class="st5" d="M184.3 147.6h3.5l5.5 14 5.4-14h3.5l-7.6 18.3h-2.8zM202.8 159c0-4 2.8-7.2 6.7-7.2 4.4 0 6.6 3.4 6.6 7.4 0 .3 0 .6-.1.9h-10c.3 2.2 1.9 3.5 3.9 3.5 1.5 0 2.6-.6 3.7-1.6l1.8 1.6c-1.3 1.6-3.1 2.6-5.6 2.6-3.9-.1-7-3-7-7.2m10.2-1c-.2-2-1.4-3.6-3.5-3.6-1.9 0-3.3 1.5-3.6 3.6h7.1zM219.4 152.1h3.1v3.1c.9-2 2.4-3.4 4.9-3.3v3.3h-.2c-2.8 0-4.7 1.8-4.7 5.4v5.2h-3.1v-13.7zM229.9 147h3.4v3h-3.4v-3zm.2 5.1h3.1v13.7h-3.1v-13.7zM236.5 163.1l1.9-2.3c1.7 1.5 3.5 2.4 5.7 2.4 2 0 3.2-.9 3.2-2.3v-.1c0-1.3-.7-2-4.1-2.8-3.9-.9-6-2.1-6-5.4v-.1c0-3.1 2.6-5.3 6.2-5.3 2.6 0 4.8.8 6.6 2.3l-1.7 2.4c-1.6-1.2-3.3-1.9-4.9-1.9-1.9 0-3 1-3 2.2v.1c0 1.4.8 2 4.3 2.9 3.8.9 5.8 2.3 5.8 5.3 0 3.4-2.7 5.4-6.5 5.4-2.7.1-5.4-.8-7.5-2.8M254 147h3.4v3H254v-3zm.1 5.1h3.1v13.7h-3.1v-13.7zM261.2 168.3l1.2-2.4c1.5.9 3 1.4 4.9 1.4 2.8 0 4.3-1.4 4.3-4.2V162c-1.1 1.5-2.6 2.5-4.8 2.5-3.2 0-6.2-2.4-6.2-6.4v-.1c0-4 3-6.4 6.2-6.4 2.3 0 3.7 1.1 4.8 2.3v-2h3.1V163c0 2.3-.6 4-1.7 5.2-1.2 1.2-3.2 1.8-5.6 1.8-2.3 0-4.4-.6-6.2-1.7m10.4-10c0-2.3-1.8-3.8-4-3.8s-3.9 1.5-3.9 3.8v.1c0 2.3 1.7 3.8 3.9 3.8 2.2-.2 4-1.7 4-3.9M278.8 152.1h3.1v2.1c.9-1.3 2.2-2.4 4.3-2.4 3.1 0 4.9 2.1 4.9 5.3v8.7H288V158c0-2.1-1.1-3.3-2.9-3.3-1.8 0-3.1 1.3-3.1 3.4v7.7h-3.1v-13.7z"/></svg>