<svg xmlns="http://www.w3.org/2000/svg" viewBox="-6159.859 7774.437 26.644 28.053">
  <defs>
    <style>
      .cls-1 {
        fill: #42af58;
      }
    </style>
  </defs>
  <g id="Group_4718" data-name="Group 4718" transform="translate(-6159.859 7774.437)">
    <path id="Path_7288" data-name="Path 7288" class="cls-1" d="M26.457,26.856a.7.7,0,0,1,.186.505.6.6,0,0,1-.239.479.413.413,0,0,1-.213.16.787.787,0,0,1-.266.053A.945.945,0,0,1,25.66,28a.478.478,0,0,1-.239-.16L17.1,18.72a10.025,10.025,0,0,1-3.084,1.7,10.577,10.577,0,0,1-7.5-.213,10.837,10.837,0,0,1-3.43-2.26A10.106,10.106,0,0,1,.8,14.545,10.534,10.534,0,0,1,3.058,3.111,10.562,10.562,0,0,1,6.488.8a10.5,10.5,0,0,1,8.03,0,10.561,10.561,0,0,1,3.43,2.313,10.032,10.032,0,0,1,2.26,3.4,10.635,10.635,0,0,1,.053,7.95,10.228,10.228,0,0,1-2.154,3.324ZM1.409,10.5a8.76,8.76,0,0,0,.718,3.537,9.478,9.478,0,0,0,1.968,2.9,9.168,9.168,0,0,0,2.9,1.968,8.853,8.853,0,0,0,3.537.718,8.76,8.76,0,0,0,3.537-.718,8.75,8.75,0,0,0,2.9-1.968,9.973,9.973,0,0,0,1.968-2.9A8.853,8.853,0,0,0,19.65,10.5a8.76,8.76,0,0,0-.718-3.537,9.168,9.168,0,0,0-1.968-2.9,9.4,9.4,0,0,0-2.9-1.941,8.76,8.76,0,0,0-3.537-.718,8.981,8.981,0,0,0-3.563.718,9.168,9.168,0,0,0-2.9,1.968A9.282,9.282,0,0,0,2.127,6.967,8.76,8.76,0,0,0,1.409,10.5Z"/>
  </g>
</svg>
