<svg xmlns="http://www.w3.org/2000/svg" viewBox="-1438 7773 30 30">
  <defs>
    <style>
      .cls-1 {
        fill: #b3b3b3;
      }
    </style>
  </defs>
  <path id="Path_5461" data-name="Path 5461" class="cls-1" d="M12.05,29.7a13.9,13.9,0,0,1-2.8-.85A12.455,12.455,0,0,1,6.7,27.5a16.207,16.207,0,0,1-2.3-1.85,16.207,16.207,0,0,1-1.85-2.3A12.455,12.455,0,0,1,1.2,20.8a18.863,18.863,0,0,1-.9-2.85,14.654,14.654,0,0,1,0-5.9,18.088,18.088,0,0,1,.85-2.8A12.455,12.455,0,0,1,2.5,6.7,16.207,16.207,0,0,1,4.35,4.4a16.576,16.576,0,0,1,2.3-1.9A12.455,12.455,0,0,1,9.2,1.15,18.088,18.088,0,0,1,12,.3,14.892,14.892,0,0,1,15,0a14.4,14.4,0,0,1,2.95.3,18.087,18.087,0,0,1,2.8.85A12.455,12.455,0,0,1,23.3,2.5a16.576,16.576,0,0,1,2.3,1.9,14.087,14.087,0,0,1,1.9,2.3,13.9,13.9,0,0,1,1.35,2.55,16.568,16.568,0,0,1,.85,2.8A14.767,14.767,0,0,1,30,15a14.4,14.4,0,0,1-.3,2.95,18.087,18.087,0,0,1-.85,2.8A12.455,12.455,0,0,1,27.5,23.3a16.576,16.576,0,0,1-1.9,2.3,13.81,13.81,0,0,1-2.3,1.85,18.163,18.163,0,0,1-2.55,1.4,12.989,12.989,0,0,1-2.8.85,14.654,14.654,0,0,1-5.9,0ZM9.75,2.65A14.418,14.418,0,0,0,5.5,5.5,13.94,13.94,0,0,0,2.6,9.75,12.325,12.325,0,0,0,1.55,15,12.887,12.887,0,0,0,2.6,20.2a14.808,14.808,0,0,0,2.9,4.3,14.887,14.887,0,0,0,4.25,2.9,12.1,12.1,0,0,0,5.2,1.05A13.3,13.3,0,0,0,20.2,27.4a12.6,12.6,0,0,0,4.25-2.9,14.887,14.887,0,0,0,2.9-4.25,12.1,12.1,0,0,0,1.05-5.2A13.3,13.3,0,0,0,27.35,9.8,14.028,14.028,0,0,0,24.5,5.5a13.8,13.8,0,0,0-4.25-2.85,13.65,13.65,0,0,0-10.5,0ZM7.1,11.05a.8.8,0,0,1,0-1.6H22.9a.716.716,0,0,1,.55.25.8.8,0,0,1,.25.55.716.716,0,0,1-.25.55.8.8,0,0,1-.55.25Zm0,4.75a.86.86,0,0,1-.8-.8.716.716,0,0,1,.25-.55.8.8,0,0,1,.55-.25H22.9a.716.716,0,0,1,.55.25.8.8,0,0,1-.55,1.35Zm0,4.75a.8.8,0,0,1,0-1.6H22.9a.716.716,0,0,1,.55.25.8.8,0,0,1,.25.55.716.716,0,0,1-.25.55.8.8,0,0,1-.55.25Z" transform="translate(-1438 7773)"/>
</svg>
